Patient4_TMGait_0pt7_01_right_22_EMG.mot
version=1
nRows=30
nColumns=33
inDegrees=no
endheader
time	1LAddLong	2LGlutMax	3LGlutMed	4LIliopsoas	5LSemiMemb	6LBicFemLong	7LRecFem	8LVastMed	9LVastLat	10LGasMed	11LTibAnt	12lTibPost	13LPeroneusLong	14LSol	15LExtDigLong	16LFlexDigLong	17RAddLong	18RGlutMax	19RGlutMed	20RIliopsoas	21RSemiMemb	22RBicFemLong	23RRecFem	24RVastMed	25RVastLat	26RGasMed	27RTibAnt	28RTibPost	29RPeroneusLong	30RSol	31RExtDigLong	32RFlexDigLong
25.54	0.012512	0.37613	0.093079	0.016632	0.019836	0.10849	0.081787	-0.02533	-0.030823	-0.010681	-0.034027	-0.029449	0.2623	0.015564	0.023956	0.00473	0.041809	-0.052795	0.79773	0.027161	0.037537	-0.079956	-0.11795	-0.035248	-0.098724	-0.083618	-0.57831	0.004272	-0.12039	-0.1387	0.001373	-0.026093
25.541	0.011749	0.34805	0.053101	0.006409	0.074005	0.036163	0.092926	-0.009003	-0.013428	0.021973	-0.013123	-0.004578	0.13886	-0.023499	0.16312	-0.001984	0.024109	-0.057831	0.51987	-0.030823	-0.03952	-0.036469	-0.096741	-0.039978	-0.12573	-0.085907	-0.35553	0.040741	-0.13794	-0.020752	-0.001526	-0.025177
25.542	0.000916	0.29938	0.036621	0.014191	0.071564	-0.007782	0.098572	0.007477	-0.052795	0.019684	0.03067	-0.013275	0.17136	-0.017395	0.16312	0.006714	-0.027771	-0.038757	0.37018	0.000153	-0.071716	0.12482	-0.068817	0.012207	-0.054016	-0.055389	-0.24139	-0.000458	-0.079803	0.27725	-0.002747	-0.024567
25.543	-0.005798	0.27741	0.018921	0.005951	-0.001831	-0.26581	0.03067	0.007172	-0.034332	-0.02655	0.077667	-0.010529	-0.083008	0.061798	0.12772	0.002747	-0.039368	-0.063629	0.38742	-0.023193	0.20599	0.13657	-0.28778	-0.054779	-0.019531	0.008545	-0.22553	-0.033569	-0.098877	0.44952	-0.001831	-0.020905
25.544	-0.016632	0.25314	0.015564	0.003204	-0.065613	-0.46097	-0.008698	0.010376	0.032349	-0.037842	0.054321	-0.018311	0.19043	0.066223	0.045471	-0.003357	-0.006409	-0.06485	0.31204	-0.059052	0.20599	0.023346	-0.64362	-0.12772	-0.012054	0.017242	-0.22156	-0.068665	-0.27069	0.47836	-0.003662	-0.024567
25.545	-0.017242	0.20432	-0.006409	-0.003662	-0.10315	-0.33188	-0.014191	0.025482	0.042419	-0.043488	0.029602	-0.005035	0.29617	0.045929	0.009155	-0.004578	-0.000763	-0.024719	0.53482	-0.04837	0.11383	-0.055084	-0.79285	-0.081482	0.10284	0.020905	-0.34347	0.021057	-0.36179	0.4364	-0.003967	-0.024109
25.546	-0.006104	0.25299	-0.018616	-0.007019	-0.13107	-0.16754	-0.063629	0.029449	0.084534	-0.020905	0.14099	-0.015259	-0.10452	0.13733	0.12619	-0.000305	0.002594	0.040436	0.51407	-0.020599	0.083313	-0.042419	-0.74783	-0.08194	0.18021	-0.046539	-0.24567	0.14786	-0.3743	0.42969	-0.003662	-0.024567
25.547	0.020142	0.2681	-0.030365	-0.019989	-0.011597	-0.10666	-0.10223	0.023956	0.15823	-0.004425	0.18829	-0.014496	-0.16235	0.050964	0.066071	0.016632	-0.016785	0.078278	0.52063	0.025024	0.068359	-0.040741	-0.59113	-0.039825	0.09903	-0.024414	-0.16388	0.084686	0.014801	0.11383	0.000305	-0.005188
25.548	0.0354	0.26611	0.018311	-0.013123	0.15869	-0.10971	-0.019836	0.00061	0.17975	0.006714	0.18509	-0.019226	0.06424	-0.04425	0.054932	0.007172	-0.010681	0.10117	0.5571	0.077209	-0.037384	-0.097046	-0.47867	-0.054169	-0.046997	0.017853	-0.14511	-0.084686	0.4126	-0.40268	-0.004883	-0.005646
25.549	0.018463	0.25055	-0.012054	-0.003815	0.097504	-0.004883	0.025635	0.007019	0.14236	-0.010681	0.15427	-0.01358	0.019989	0.005951	-0.002594	0.010681	0.010223	0.013733	0.51193	0.092926	-0.059662	-0.17502	-0.45578	-0.075531	-0.021973	0.038605	-0.083466	-0.17471	0.35568	-0.21103	0.000153	-0.005798
25.55	0.019836	0.23712	-0.067749	-0.010376	0.010834	-0.019073	0.022736	-0.00412	0.040131	-0.02121	-0.03891	-0.010529	-0.13718	-0.006561	-0.16281	0.003052	0.006104	0.025635	0.51224	0.08667	0.003052	-0.19134	-0.41885	-0.012054	0.090332	0.023041	0.023804	-0.31174	0.046234	0.17273	-0.001526	-0.008698
25.551	0.024872	0.16602	-0.036011	-0.005188	0.033112	-0.068817	0.005035	-0.033569	-0.040283	-0.039673	-0.32227	-0.0177	-0.08667	-0.027771	-0.23987	0.005188	-0.023346	0.060425	0.50125	0.041504	0.02121	-0.15839	-0.42358	0.026703	0.060883	0.046539	0.071564	0.13992	0.097351	0.06012	-0.002289	-0.013123
25.552	0.007324	0.13458	0.029449	0.020599	0.045624	0.002136	-0.013428	-0.028229	-0.15869	-0.015259	-0.31494	-0.01709	-0.11826	-0.043335	-0.17822	0.006866	-0.027618	0.10666	0.41519	-0.021362	0.10681	-0.20447	-0.43259	0.052643	0.0354	0.029602	0.092163	-0.38361	-0.031891	-0.10483	0.001831	-0.01709
25.553	0.006866	0.09491	-0.002747	0.020142	-0.001526	0.017395	0.011597	-0.012817	-0.038452	-0.014191	-0.16129	-0.014954	-0.30441	-0.039368	-0.031891	0.014343	-0.008087	0.065765	0.35645	-0.036774	0.11353	-0.23712	-0.42831	0.073242	0.047302	0.029449	0.13977	0.42664	-0.16907	-0.033875	-0.002136	-0.018768
25.554	0.008087	0.10391	-0.026855	0.0177	-0.038452	0.035095	-0.03952	0.003815	-0.025482	0.006714	-0.12116	-0.017395	0.10773	-0.1178	-0.08606	0.008392	0.008698	-0.034027	0.33783	-0.065765	0.22339	-0.15427	-0.47592	0.03891	0.032043	0.027618	0.11917	0.3186	-0.1561	0.26916	-0.006714	-0.02182
25.555	-0.059204	0.09552	-0.04364	0.01236	-0.058899	0.044861	-0.080872	0.00885	-0.031128	-0.017548	-0.11063	-0.024414	0.32654	-0.11231	-0.038757	-0.011749	0.023041	0.049286	0.29831	-0.12146	0.22003	-0.09201	-0.44388	-0.027771	0.047302	0.049133	0.19928	0.062256	-0.054016	0.48035	-0.003052	-0.016022
25.556	0.041046	0.049591	-0.037231	0.002899	-0.012665	0.1416	-0.061646	0.002747	-0.1062	-0.010071	-0.081635	-0.015717	0.16312	-0.057678	0.051727	-0.001678	0.048218	0.092773	0.7019	-0.11597	0.22156	-0.10468	-0.44189	-0.093689	0.032806	0.055542	0.3363	0.044403	0.1738	0.38986	-0.003967	-0.015411
25.557	-0.058746	0.11414	-0.036469	-0.011292	0.021515	0.26581	-0.01236	-0.007782	0.048828	-0.008545	-0.034637	-0.00824	0.13825	0.029297	0.079193	-0.006256	0.067444	0.077667	0.8081	-0.041046	0.28931	-0.088501	-0.42694	-0.062256	0.047913	0.035095	0.30563	-0.14664	0.18402	0.11429	-0.005951	-0.023041
25.558	-0.024872	0.066986	-0.033875	-0.010986	0.02655	0.47379	-0.001373	-0.006714	0.18799	-0.021667	0.035858	-0.017853	0.052032	0.005188	0.074768	-0.006104	0.075989	-0.00351	0.82382	0.10284	0.21774	-0.037689	-0.43884	-0.081024	0.0354	-0.016479	0.068054	-0.016174	0.10269	-0.33218	-0.001678	-0.025482
25.559	-0.021667	0.06424	-0.040436	-0.009003	0.022583	0.58029	0.069275	0.009918	0.065765	0.003052	0.031586	-0.02182	0.045319	-0.046082	0.053558	0.000763	0.070953	-0.013885	0.7164	0.14084	0.04715	0.016174	-0.46371	-0.12833	0.027924	-0.091553	-0.66483	0.18173	0.13107	-0.38956	-0.000916	-0.016632
25.56	-0.031128	0.15259	-0.04837	-0.0177	-0.040283	0.63232	0.037689	0.005951	-0.047913	0.009613	0.007782	-0.022583	0.009308	-0.083466	0.039063	0.002289	0.039673	0.026398	0.37125	0.13382	-0.097046	0.089569	-0.4808	-0.069427	0.017548	-0.056	-1.2595	0.10956	0.16083	-0.60562	-0.004883	-0.016479
25.561	-0.018158	0.22553	-0.066986	-0.001068	-0.16052	0.5867	-0.006104	-0.008392	-0.059357	0.014648	0.039825	-0.013275	0.011444	-0.051575	0.016479	-0.004578	-0.004425	0.028076	0.103	0.011902	-0.1413	0.1355	-0.4863	-0.005493	0.032196	-0.04303	-0.87814	0.018005	-0.032196	-0.85922	0.001678	-0.017395
25.562	0.007324	0.20447	-0.082703	0.000916	-0.19302	0.49255	-0.066833	-0.024261	-0.060883	0.011139	-0.007477	-0.017242	0.054932	-0.018311	0.033569	0.006714	-0.025024	-0.065308	0.035553	-0.11826	-0.034637	-0.00946	-0.4631	-0.013885	0.01358	-0.036011	-0.35217	0.000916	-0.11078	-0.60471	-0.007324	-0.015411
25.563	0.024872	0.14877	-0.004272	0.002289	-0.028534	0.38116	-0.088654	-0.014343	-0.086823	-0.006561	-0.15182	-0.014191	0.14877	0.045624	0.042267	0.001221	-0.040588	-0.076599	0.38559	-0.31326	-0.073242	-0.021515	-0.47287	-0.002899	-0.007782	-0.006256	0.1738	-0.009766	-0.14755	-0.47089	-0.003052	-0.019226
25.564	0.037994	0.16068	0.026093	-0.001984	0.15808	0.18997	-0.10391	-0.015106	-0.064545	-0.007477	-0.24048	-0.017395	0.069122	0.07019	0.039215	0.002747	-0.037994	-0.055389	0.50079	-0.25223	0.21088	-0.067596	-0.45822	-0.001831	-0.002594	0.014648	0.70587	-0.011444	-0.16251	0.36743	-0.00061	-0.008545
25.565	0.022278	0.23086	0.067291	0.005188	0.2121	-0.29098	-0.055389	-0.002289	0.003662	0.026245	-0.20294	-0.017853	-0.26596	0.088043	0.024872	0.007935	-0.013885	0.032043	0.46707	-0.081787	0.14603	0.016632	-0.44373	-0.015717	-0.014496	0.014801	0.88516	-0.016327	-0.21011	0.28015	-0.005188	-0.006409
25.566	0.002136	0.27786	0.063782	0.019379	0.095825	-0.86273	-0.013885	-0.001984	0.21347	0.041504	-0.081482	-0.013275	-0.24429	0.069733	-0.001526	-0.003357	0	-0.016632	0.34851	0.098419	0.10437	0.12421	-0.47409	-0.003967	-0.007019	0.014343	0.85373	-0.016174	-0.18799	-0.12085	-0.003967	-0.003052
25.567	0.008087	0.30975	0.088959	-0.00885	0.05722	-0.89493	-0.020752	0.003204	0.30624	0.027313	0.059052	-0.0177	0.24231	0.070496	0.06897	0.001526	-0.014954	-0.061951	0.38528	0.29327	0.14755	0.22461	-0.48492	0.045624	-0.004883	0.03006	0.7486	-0.020447	-0.12116	-0.32776	0.002899	-0.007324
25.568	0.010223	0.30991	0.073853	-0.002594	0.12405	-0.57999	-0.042419	0.033569	0.20294	-0.005035	0.081787	-0.010529	0.46036	0.079956	0.027008	-0.005341	0.006409	-0.084991	0.26321	0.50812	0.19791	0.17731	-0.504	-0.016479	-0.033722	0.034027	0.17838	-0.10941	-0.12268	-0.002136	-0.003204	-0.003815
25.569	0.010223	0.28625	0.047302	0.003662	0.15106	-0.33035	-0.055847	0.033264	0.057526	0.007935	0.09964	-0.00946	-0.16693	0.050659	0.037689	0.005951	0.023499	-0.094757	0.14053	0.33737	0.15259	0.061188	-0.55985	-0.035706	-0.049286	0.03006	-0.29633	-0.19867	0.046082	0.16861	-0.008087	-0.006409
